<svg width="32" height="33" viewBox="0 0 32 33" fill="none" xmlns="http://www.w3.org/2000/svg">
<path d="M10.7032 26.55C10.7032 26.6864 10.5548 26.7955 10.3677 26.7955C10.1548 26.8159 10.0065 26.7068 10.0065 26.55C10.0065 26.4136 10.1548 26.3045 10.3419 26.3045C10.5355 26.2841 10.7032 26.3932 10.7032 26.55ZM8.69677 26.2432C8.65161 26.3795 8.78065 26.5364 8.97419 26.5773C9.14194 26.6455 9.33548 26.5773 9.37419 26.4409C9.4129 26.3045 9.29032 26.1477 9.09677 26.0864C8.92903 26.0386 8.74194 26.1068 8.69677 26.2432ZM11.5484 26.1273C11.3613 26.175 11.2323 26.3045 11.2516 26.4614C11.271 26.5977 11.4387 26.6864 11.6323 26.6386C11.8194 26.5909 11.9484 26.4614 11.929 26.325C11.9097 26.1955 11.7355 26.1068 11.5484 26.1273ZM15.7935 0C6.84516 0 0 7.17955 0 16.6364C0 24.1977 4.50323 30.6682 10.9355 32.9455C11.7613 33.1023 12.0516 32.5636 12.0516 32.1205C12.0516 31.6977 12.0323 29.3659 12.0323 27.9341C12.0323 27.9341 7.51613 28.9568 6.56774 25.9023C6.56774 25.9023 5.83226 23.9182 4.77419 23.4068C4.77419 23.4068 3.29677 22.3364 4.87742 22.3568C4.87742 22.3568 6.48387 22.4932 7.36774 24.1159C8.78065 26.7477 11.1484 25.9909 12.071 25.5409C12.2194 24.45 12.6387 23.6932 13.1032 23.2432C9.49677 22.8205 5.85807 22.2682 5.85807 15.7091C5.85807 13.8341 6.34839 12.8932 7.38065 11.6932C7.2129 11.25 6.66452 9.42273 7.54839 7.06364C8.89677 6.62045 12 8.90455 12 8.90455C13.2903 8.52273 14.6774 8.325 16.0516 8.325C17.4258 8.325 18.8129 8.52273 20.1032 8.90455C20.1032 8.90455 23.2065 6.61364 24.5548 7.06364C25.4387 9.42955 24.8903 11.25 24.7226 11.6932C25.7548 12.9 26.3871 13.8409 26.3871 15.7091C26.3871 22.2886 22.5871 22.8136 18.9806 23.2432C19.5742 23.7818 20.0774 24.8045 20.0774 26.4068C20.0774 28.7045 20.0581 31.5477 20.0581 32.1068C20.0581 32.55 20.3548 33.0886 21.1742 32.9318C27.6258 30.6682 32 24.1977 32 16.6364C32 7.17955 24.7419 0 15.7935 0ZM6.27097 23.5159C6.1871 23.5841 6.20645 23.7409 6.31613 23.8705C6.41935 23.9795 6.56774 24.0273 6.65161 23.9386C6.73548 23.8705 6.71613 23.7136 6.60645 23.5841C6.50323 23.475 6.35484 23.4273 6.27097 23.5159ZM5.57419 22.9636C5.52903 23.0523 5.59355 23.1614 5.72258 23.2295C5.82581 23.2977 5.95484 23.2773 6 23.1818C6.04516 23.0932 5.98064 22.9841 5.85161 22.9159C5.72258 22.875 5.61935 22.8955 5.57419 22.9636ZM7.66452 25.3909C7.56129 25.4795 7.6 25.6841 7.74839 25.8136C7.89677 25.9705 8.08387 25.9909 8.16774 25.8818C8.25161 25.7932 8.2129 25.5886 8.08387 25.4591C7.94194 25.3023 7.74839 25.2818 7.66452 25.3909ZM6.92903 24.3886C6.82581 24.4568 6.82581 24.6341 6.92903 24.7909C7.03226 24.9477 7.20645 25.0159 7.29032 24.9477C7.39355 24.8591 7.39355 24.6818 7.29032 24.525C7.2 24.3682 7.03226 24.3 6.92903 24.3886Z" fill="#404040"/>
</svg>
